# xmcd
#
# Track frame offsets: 
#        150
#        13780
#        46470
#        62222
#        83745
#        113200
#        126830
#        140552
#        153765
#        171327
#        199125
#        216797
#        226670
#        255220
#        275740
#        296515
#
# Disc length: 4218 seconds
#
# Revision: 0
# Processed by: cddbd v1.5.2PL0 Copyright (c) Steve Scherf et al.
# Submitted via: ExactAudioCopyFreeDBPlugin 1.0
#
DISCID=e4107810
DTITLE=Baden Powell - Rosinha Dé Valenca - José Barrense-Dias - Chiquinho
DTITLE=Timotéo  - Guitares Du Bresil
DYEAR=1998
DGENRE=Weltmusik
TTITLE0=Berimbau
TTITLE1=Rosinha Dé Valenca - Tema Por Baden
TTITLE2=José Barrense-Dias - Samba Do Cameraman - Jean Samba
TTITLE3=Chiquinho Timotéo - Frevinho
TTITLE4=Variacoes Brasileiras - Asa Branca
TTITLE5=Rosinha Dé Valenca - Cravo E Canela
TTITLE6=José Barrense-Dias - Bachiana Opus No 7
TTITLE7=Chiquinho Timotéo - Choro Samba Em Ré
TTITLE8=Samba Do Aviao
TTITLE9=Rosinha Dé Valenca - Consolacao
TTITLE10=José Barrense-Dias - Quero Samba
TTITLE11=Chiquinho Timotéo - Quebra Cabeca
TTITLE12=Abertura - Afro Samba
TTITLE13=Rosinha Dé Valenca - Vento De Primaveira
TTITLE14=José Barrense-Dias - Abismo De Rosa
TTITLE15=Chiquinho Timotéo - Samba No 8
EXTD=
EXTT0=
EXTT1=
EXTT2=
EXTT3=
EXTT4=
EXTT5=
EXTT6=
EXTT7=
EXTT8=
EXTT9=
EXTT10=
EXTT11=
EXTT12=
EXTT13=
EXTT14=
EXTT15=
PLAYORDER=
